<?xml version="1.0" encoding="UTF-8"?>
<svg version="1.1" xmlns="http://www.w3.org/2000/svg" width="500" height="500">
<path d="M0 0 C1.39631827 0.58106069 2.80271867 1.138635 4.21923828 1.66854858 C9.95425431 3.85253358 16.31030973 6.28786112 19.22756958 12.02137756 C21.18793492 18.09225917 21.6324725 24.37955244 22.14428711 30.70481873 C22.35374158 32.60595848 22.56983684 34.50637891 22.79272461 36.4059906 C23.48968468 42.56864388 24.14428711 48.68675099 24.14428711 54.89231873 C22.82428711 54.89231873 21.50428711 54.89231873 20.14428711 54.89231873 C19.79237305 53.94872498 19.44045898 53.00513123 19.07788086 52.03294373 C10.63260672 29.88040693 -1.35632247 15.99703222 -22.85571289 5.89231873 C-23.51571289 5.89231873 -24.17571289 5.89231873 -24.85571289 5.89231873 C-24.36071289 6.24294373 -23.86571289 6.59356873 -23.35571289 6.95481873 C-21.16737073 9.78142735 -21.56677115 12.47733219 -21.85571289 15.89231873 C-22.40149005 19.2574872 -23.14694493 22.56665598 -23.91040039 25.88841248 C-24.23575775 27.34220306 -24.23575775 27.34220306 -24.56768799 28.82536316 C-25.28025392 31.9954915 -26.00467816 35.16274987 -26.73071289 38.32981873 C-26.97803162 39.41799896 -27.22535034 40.5061792 -27.48016357 41.62733459 C-48.9452189 136.07133075 -48.9452189 136.07133075 -59.85571289 157.89231873 C-24.97536888 157.52022866 -24.97536888 157.52022866 6.14428711 142.89231873 C6.83256592 142.46499451 7.52084473 142.03767029 8.22998047 141.59739685 C10.32352792 140.05767501 10.32352792 140.05767501 10.67773438 137.70335388 C10.71341743 134.9729394 10.73815229 132.24793412 10.70678711 129.51731873 C10.73063477 128.57114685 10.75448242 127.62497498 10.77905273 126.65013123 C10.76956228 122.145327 10.64653763 119.62964515 8.06616211 115.84153748 C4.63224537 113.55072938 1.88668595 112.79984749 -2.16821289 112.07981873 C-3.4224707 111.84649841 -4.67672852 111.6131781 -5.96899414 111.37278748 C-6.92161133 111.21423279 -7.87422852 111.0556781 -8.85571289 110.89231873 C-8.85571289 109.90231873 -8.85571289 108.91231873 -8.85571289 107.89231873 C11.60428711 107.89231873 32.06428711 107.89231873 53.14428711 107.89231873 C53.14428711 108.88231873 53.14428711 109.87231873 53.14428711 110.89231873 C52.10788086 111.05087341 51.07147461 111.2094281 50.00366211 111.37278748 C48.63368307 111.60737293 47.26390104 111.84311096 45.89428711 112.07981873 C45.21237305 112.18101013 44.53045898 112.28220154 43.82788086 112.38645935 C40.20939961 113.03638074 38.34395697 113.69232682 35.72241211 116.31809998 C33.3918507 120.11968406 33.03262509 122.8156522 33.11352539 127.18309021 C33.12908478 128.26529343 33.14464417 129.34749664 33.16067505 130.4624939 C33.17847015 131.63429703 33.19626526 132.80610016 33.21459961 134.01341248 C33.22550836 136.50103103 33.23321655 138.9886653 33.23803711 141.4763031 C33.24586788 145.39438066 33.26886888 149.30869699 33.34643555 153.22605896 C33.79319292 177.36472688 33.79319292 177.36472688 28.38693237 183.90039062 C26.13526663 186.14504522 23.71719628 188.02950107 21.14428711 189.89231873 C19.38745464 191.46806747 17.63643511 193.05034988 15.89428711 194.64231873 C-9.44338698 214.41284189 -43.96637887 220.09355001 -75.27587891 216.4997406 C-104.45574236 212.19977383 -130.86596718 199.91982583 -149.24389648 176.09251404 C-152.05293825 172.17207345 -154.49129541 168.0935564 -156.85571289 163.89231873 C-157.41774414 162.90747498 -157.97977539 161.92263123 -158.55883789 160.90794373 C-172.78587734 134.32206192 -175.08017633 99.82572595 -167.85571289 70.89231873 C-167.68942383 70.2199115 -167.52313477 69.54750427 -167.35180664 68.85472107 C-160.11451064 40.79679665 -142.01953552 16.96824519 -117.12329102 2.12669373 C-104.94340778 -4.50352695 -91.53620418 -8.28261022 -77.85571289 -10.10768127 C-76.01106445 -10.38225159 -76.01106445 -10.38225159 -74.12915039 -10.66236877 C-49.26488261 -13.69211142 -23.01018085 -9.78258543 0 0 Z M-117.15258789 21.90013123 C-134.26839608 38.28619565 -142.33191835 60.99997516 -145.85571289 83.89231873 C-145.98848633 84.74954529 -146.12125977 85.60677185 -146.25805664 86.48997498 C-149.90562868 115.62058452 -144.92438824 149.05704486 -126.85571289 172.89231873 C-121.68816627 179.1232517 -116.15535892 184.80449888 -109.85571289 189.89231873 C-109.72036133 189.27485779 -109.58500977 188.65739685 -109.44555664 188.02122498 C-106.93438852 178.14195878 -101.84212715 171.57451478 -93.25805664 166.13059998 C-90.74690374 164.83623336 -88.30596116 164.08180669 -85.60571289 163.26731873 C-82.5393734 162.0987107 -81.15316202 161.39671851 -79.46508789 158.53416443 C-79.09899414 157.57598816 -78.73290039 156.61781189 -78.35571289 155.63059998 C-77.9403125 154.5503656 -77.52491211 153.47013123 -77.09692383 152.35716248 C-74.9996579 146.50263887 -73.00033748 140.62819012 -71.10571289 134.70481873 C-70.89261475 134.03970276 -70.6795166 133.37458679 -70.45996094 132.6893158 C-58.87556555 96.41479511 -50.22048498 59.27122178 -42.73071289 21.95481873 C-42.5801947 21.20798828 -42.42967651 20.46115784 -42.27459717 19.69169617 C-41.856229 17.60462605 -41.44422943 15.51643239 -41.03540039 13.42747498 C-40.80578613 12.25579773 -40.57617188 11.08412048 -40.33959961 9.87693787 C-39.74902147 6.73817643 -39.74902147 6.73817643 -39.85571289 2.89231873 C-38.86571289 2.56231873 -37.87571289 2.23231873 -36.85571289 1.89231873 C-36.85571289 1.56231873 -36.85571289 1.23231873 -36.85571289 0.89231873 C-67.806203 -2.98693838 -93.05271755 0.83323776 -117.15258789 21.90013123 Z M5.76928711 149.07981873 C-7.37116875 158.31920175 -21.90264875 161.53525389 -37.75805664 162.42747498 C-38.84190392 162.49194069 -38.84190392 162.49194069 -39.94764709 162.55770874 C-42.22935198 162.69280085 -44.51126642 162.82387749 -46.79321289 162.95481873 C-48.35117129 163.04634898 -49.90911419 163.13814335 -51.46704102 163.23020935 C-55.2630928 163.45396451 -59.05933774 163.67412164 -62.85571289 163.89231873 C-63.32879883 164.98028748 -63.80188477 166.06825623 -64.28930664 167.18919373 C-70.03587353 180.08622631 -76.23177871 193.14545452 -89.79321289 199.20481873 C-90.81415039 199.54513123 -90.81415039 199.54513123 -91.85571289 199.89231873 C-88.76358109 201.95373993 -86.2059144 202.86406199 -82.66821289 203.95481873 C-81.5815332 204.29642029 -80.49485352 204.63802185 -79.37524414 204.98997498 C-64.20906053 208.8783084 -47.90853805 207.56800859 -32.85571289 203.89231873 C-31.76000977 203.62548279 -30.66430664 203.35864685 -29.53540039 203.08372498 C-15.95131864 199.32891122 -3.87877468 192.58357898 7.14428711 183.89231873 C7.84231445 183.52493591 8.5403418 183.1575531 9.25952148 182.77903748 C11.67537479 180.36068069 11.59890838 178.54383872 11.59747314 175.21612549 C11.576828 174.46602707 11.55618286 173.71592865 11.53491211 172.94309998 C11.52642242 171.78417488 11.52642242 171.78417488 11.51776123 170.60183716 C11.49538038 168.13553243 11.44518414 165.67068381 11.39428711 163.20481873 C11.37422417 161.53231368 11.35597303 159.85978584 11.33959961 158.1872406 C11.29551042 154.08837276 11.22647386 149.99059255 11.14428711 145.89231873 C9.15493653 145.89231873 7.28501203 147.9585648 5.76928711 149.07981873 Z M-84.85571289 166.89231873 C-93.48953447 171.48197551 -100.40673088 175.82618013 -104.85571289 184.89231873 C-105.08113372 187.58329966 -105.08113372 187.58329966 -104.85571289 189.89231873 C-101.98842164 191.23580599 -101.98842164 191.23580599 -99.91040039 189.95091248 C-94.77260474 186.12979205 -91.18980916 181.96680229 -87.73071289 176.64231873 C-87.32836426 176.02799988 -86.92601562 175.41368103 -86.51147461 174.78074646 C-85.26142558 172.82091174 -85.26142558 172.82091174 -83.85571289 169.89231873 C-84.18571289 168.90231873 -84.51571289 167.91231873 -84.85571289 166.89231873 Z " fill="#FB6A33" transform="translate(307.855712890625,130.10768127441406)"/>
<path d="M0 0 C3.16518697 1.64993789 6.45851612 3.45851612 9 6 C9.38517504 11.92686858 8.2688446 17.23747184 6.9453125 22.99609375 C6.61995514 24.44988434 6.61995514 24.44988434 6.2880249 25.93304443 C5.57545897 29.10317277 4.85103473 32.27043114 4.125 35.4375 C3.87768127 36.52568024 3.63036255 37.61386047 3.37554932 38.73501587 C-18.08950601 133.17901202 -18.08950601 133.17901202 -29 155 C5.84096608 154.53727967 5.84096608 154.53727967 37 140 C38.18409464 139.20324895 39.37116894 138.41088972 40.5625 137.625 C41.366875 137.08875 42.17125 136.5525 43 136 C43.4375 138.625 43.4375 138.625 43 142 C32.640013 153.91398505 13.78641787 159.05618002 -1.33178711 160.17211914 C-3.9498032 160.32179966 -6.56772848 160.44763291 -9.1875 160.5625 C-10.11135498 160.6049585 -11.03520996 160.64741699 -11.98706055 160.69116211 C-18.66349185 160.98189955 -25.31698964 161.12452814 -32 161 C-32.37125 162.258125 -32.7425 163.51625 -33.125 164.8125 C-36.89095136 175.98774172 -43.89417209 188.73254092 -54.171875 195.14453125 C-57.88122161 196.88031524 -60.90995247 197.6586733 -65 197 C-70.08962368 194.68710451 -75.0262334 191.9737666 -79 188 C-79.81065568 181.40097836 -76.96087664 176.44044713 -73.07421875 171.35546875 C-68.06572786 165.66786045 -63.38602402 162.35906358 -56.0859375 160.32421875 C-51.98676738 158.64063661 -50.33869635 157.56853358 -48.04858398 153.72436523 C-46.28343688 149.46724773 -45.05283223 145.05702778 -43.8125 140.625 C-43.31638735 138.98197549 -42.81632357 137.34013931 -42.3125 135.69946289 C-41.30002444 132.37269644 -40.31647575 129.03946919 -39.35791016 125.69677734 C-38.1869425 121.61729375 -36.94293324 117.56769549 -35.66796875 113.51953125 C-24.87733238 78.6826339 -17.32839998 42.6689654 -10.56567383 6.85766602 C-10.37900146 5.91463623 -10.1923291 4.97160645 -10 4 C-9.85135498 3.23163818 -9.70270996 2.46327637 -9.54956055 1.67163086 C-9.36820557 1.11999268 -9.18685059 0.56835449 -9 0 C-5.76550476 -1.61724762 -3.48030294 -0.78587486 0 0 Z M-54 164 C-62.63382158 168.58965679 -69.55101799 172.9338614 -74 182 C-74.22542083 184.69098093 -74.22542083 184.69098093 -74 187 C-71.13270875 188.34348726 -71.13270875 188.34348726 -69.0546875 187.05859375 C-63.91689185 183.23747333 -60.33409627 179.07448357 -56.875 173.75 C-56.47265137 173.13568115 -56.07030273 172.5213623 -55.65576172 171.88842773 C-54.40571269 169.92859302 -54.40571269 169.92859302 -53 167 C-53.33 166.01 -53.66 165.02 -54 164 Z " fill="#F9D34E" transform="translate(277,133)"/>
<path d="M0 0 C4.04166977 1.34722326 5.06915053 3.66160518 7.40234375 7.08984375 C9.13179942 9.15757926 10.61772291 9.8314304 13 11 C13.75 13.625 13.75 13.625 14 16 C14.99 15.67 15.98 15.34 17 15 C17 10.71 17 6.42 17 2 C17.33 2 17.66 2 18 2 C18.57328174 5.91386765 19.14283468 9.82825821 19.70898438 13.74316406 C19.99673706 15.72749888 20.28741437 17.71140887 20.578125 19.6953125 C20.84882813 21.57089844 20.84882813 21.57089844 21.125 23.484375 C21.29257812 24.63647461 21.46015625 25.78857422 21.6328125 26.97558594 C22 30 22 30 22 34 C20.68 34 19.36 34 18 34 C17.64808594 33.05640625 17.29617188 32.1128125 16.93359375 31.140625 C12.73846932 20.13652416 7.91162487 9.8706097 0 1 C0 0.67 0 0.34 0 0 Z " fill="#EF6F3F" transform="translate(310,151)"/>
<path d="M0 0 C-0.33 0.99 -0.66 1.98 -1 3 C-1.66 3 -2.32 3 -3 3 C-3 3.66 -3 4.32 -3 5 C-2.34 5.33 -1.68 5.66 -1 6 C-1.50789063 6.32871094 -2.01578125 6.65742188 -2.5390625 6.99609375 C-8.03855663 10.79630599 -12.07576024 14.92407961 -15 21 C-15.50881131 24.38118319 -15.50881131 24.38118319 -15 27 C-15.99 27 -16.98 27 -18 27 C-19.27939261 23.97332263 -19.98048302 21.29836956 -20 18 C-17.11058797 11.28516922 -8.10111545 0 0 0 Z " fill="#F7D558" transform="translate(219,294)"/>
<path d="M0 0 C1.0012793 -0.00080566 2.00255859 -0.00161133 3.03417969 -0.00244141 C9.30432204 0.04419602 15.46173006 0.4440351 21.6875 1.1875 C21.6875 1.5175 21.6875 1.8475 21.6875 2.1875 C8.1575 2.1875 -5.3725 2.1875 -19.3125 2.1875 C-19.6425 4.1675 -19.9725 6.1475 -20.3125 8.1875 C-21.875 10.0625 -21.875 10.0625 -23.3125 11.1875 C-22.3225 11.8475 -21.3325 12.5075 -20.3125 13.1875 C-21.91314843 13.71904742 -23.51818874 14.23738353 -25.125 14.75 C-26.01832031 15.04003906 -26.91164062 15.33007812 -27.83203125 15.62890625 C-30.3125 16.1875 -30.3125 16.1875 -33.3125 15.1875 C-31.3325 14.1975 -29.3525 13.2075 -27.3125 12.1875 C-27.6425 11.1975 -27.9725 10.2075 -28.3125 9.1875 C-26.875 7 -26.875 7 -25.3125 5.1875 C-28.2825 4.6925 -28.2825 4.6925 -31.3125 4.1875 C-22.45716296 -0.92796169 -9.89301428 0.00761704 0 0 Z " fill="#EB7041" transform="translate(250.3125,118.8125)"/>
<path d="M0 0 C0.4375 2.625 0.4375 2.625 0 6 C-4.16155795 11.41002534 -11.70345182 15.69813246 -18 18 C-21.12890625 17.6640625 -21.12890625 17.6640625 -24 17 C-25.99965715 16.96296931 -28.00056665 16.95239444 -30 17 C-27.12647985 15.0843199 -24.58067447 13.99250949 -21.375 12.75 C-16.15401832 10.60983943 -4.71703905 0 0 0 Z " fill="#F5D05C" transform="translate(320,269)"/>
<path d="M0 0 C0.66 0.33 1.32 0.66 2 1 C1.45730469 2.11117187 0.91460937 3.22234375 0.35546875 4.3671875 C-5.1969162 15.84827496 -5.1969162 15.84827496 -9 28 C-9.33 28 -9.66 28 -10 28 C-10.33 25.36 -10.66 22.72 -11 20 C-11.66 20 -12.32 20 -13 20 C-12.6875 18.0625 -12.6875 18.0625 -12 16 C-11.01 15.67 -10.02 15.34 -9 15 C-9 14.01 -9 13.02 -9 12 C-8.34 12 -7.68 12 -7 12 C-6.67 11.01 -6.34 10.02 -6 9 C-5.34 9 -4.68 9 -4 9 C-4 7.68 -4 6.36 -4 5 C-3.34 5 -2.68 5 -2 5 C-1.34 3.35 -0.68 1.7 0 0 Z " fill="#F96F36" transform="translate(175,170)"/>
<path d="M0 0 C1.32 0.33 2.64 0.66 4 1 C3.0409375 2.1446875 3.0409375 2.1446875 2.0625 3.3125 C-0.75829238 6.98807794 -1.12903167 9.61286834 -1.20532227 14.11401367 C-1.22526749 15.15486618 -1.24521271 16.19571869 -1.26576233 17.26811218 C-1.28247482 18.39006485 -1.29918732 19.51201752 -1.31640625 20.66796875 C-1.33718735 21.81791824 -1.35796844 22.96786774 -1.37937927 24.15266418 C-1.44483342 27.83088125 -1.50374074 31.50917048 -1.5625 35.1875 C-1.60568913 37.67904396 -1.64930355 40.17058059 -1.69335938 42.66210938 C-1.80051061 48.77466301 -1.90228483 54.88728864 -2 61 C-2.33 61 -2.66 61 -3 61 C-3.07621816 53.43780999 -3.12867069 45.87571949 -3.16479492 38.31323242 C-3.17985844 35.7419057 -3.2003132 33.17060457 -3.22631836 30.59936523 C-3.26280761 26.89821038 -3.27975121 23.197396 -3.29296875 19.49609375 C-3.30845261 18.35103867 -3.32393646 17.20598358 -3.33988953 16.02622986 C-3.34117676 9.88758286 -2.95563523 5.42377814 0 0 Z " fill="#F26D3F" transform="translate(342,243)"/>
<path d="M0 0 C0.66 0 1.32 0 2 0 C1.28418236 7.32127408 -0.36918021 14.34955447 -2.0625 21.5 C-2.34416016 22.70398438 -2.62582031 23.90796875 -2.91601562 25.1484375 C-3.60701817 28.09983822 -4.30177299 31.05030161 -5 34 C-5.33 34 -5.66 34 -6 34 C-6.02689216 32.52093108 -6.04634621 31.04172517 -6.0625 29.5625 C-6.07410156 28.73878906 -6.08570313 27.91507813 -6.09765625 27.06640625 C-6 25 -6 25 -5 24 C-3.15527829 17.33476461 -2.7364394 10.88186004 -3 4 C-2.01 4 -1.02 4 0 4 C0 2.68 0 1.36 0 0 Z " fill="#F4D261" transform="translate(277,174)"/>
<path d="M0 0 C0.680625 -0.00257813 1.36125 -0.00515625 2.0625 -0.0078125 C4 0.125 4 0.125 7 1.125 C7 2.445 7 3.765 7 5.125 C2.38 5.455 -2.24 5.785 -7 6.125 C-7 4.475 -7 2.825 -7 1.125 C-4.32356043 0.23285348 -2.74615622 -0.01040211 0 0 Z " fill="#FDD93C" transform="translate(261,287.875)"/>
<path d="M0 0 C1.98 0.66 3.96 1.32 6 2 C3.95938938 4.21980333 2.17374516 5.57667936 -0.58203125 6.7890625 C-1.26716797 7.09070313 -1.95230469 7.39234375 -2.65820312 7.703125 C-3.36912109 8.00734375 -4.08003906 8.3115625 -4.8125 8.625 C-5.51181641 8.93695313 -6.21113281 9.24890625 -6.93164062 9.5703125 C-10.94917934 11.31412725 -14.60890201 12.48988815 -19 13 C-19 12.01 -19 11.02 -19 10 C-18.01 9.896875 -17.02 9.79375 -16 9.6875 C-11.71934177 9.09465935 -8.01551742 7.5653712 -4 6 C-3.34 6 -2.68 6 -2 6 C-2 4.68 -2 3.36 -2 2 C-1.34 2 -0.68 2 0 2 C0 1.34 0 0.68 0 0 Z " fill="#E97449" transform="translate(308,328)"/>
<path d="M0 0 C1.65 0.33 3.3 0.66 5 1 C3.60068938 4.30093787 2.03783328 6.09181266 -0.8125 8.25 C-1.47894531 8.77078125 -2.14539063 9.2915625 -2.83203125 9.828125 C-5.40318024 11.21793527 -7.11943184 11.22119546 -10 11 C-9.4375 8.625 -9.4375 8.625 -8 6 C-4.375 4.6875 -4.375 4.6875 -1 4 C-0.67 2.68 -0.34 1.36 0 0 Z " fill="#F8D25E" transform="translate(226,318)"/>
<path d="M0 0 C16.17 0 32.34 0 49 0 C49 0.99 49 1.98 49 3 C48.01 3 47.02 3 46 3 C46 2.34 46 1.68 46 1 C30.82 1 15.64 1 0 1 C0 0.67 0 0.34 0 0 Z " fill="#EC6F3F" transform="translate(312,238)"/>
<path d="M0 0 C4.04166977 1.34722326 5.06915053 3.66160518 7.40234375 7.08984375 C8.860698 9.13405413 8.860698 9.13405413 11.11328125 9.87109375 C13 11 13 11 13.828125 13.8203125 C13.96734375 14.91085938 14.1065625 16.00140625 14.25 17.125 C14.39953125 18.22070312 14.5490625 19.31640625 14.703125 20.4453125 C14.85007812 21.70988281 14.85007812 21.70988281 15 23 C12.52970706 19.87096228 10.57765074 16.59736082 8.625 13.125 C6.06110384 8.66676018 3.41372157 4.827506 0 1 C0 0.67 0 0.34 0 0 Z " fill="#EA6E43" transform="translate(310,151)"/>
<path d="M0 0 C0.33 0 0.66 0 1 0 C1.24795864 5.77278706 0.33663941 10.83354896 -1 16.4375 C-1.19078125 17.26443359 -1.3815625 18.09136719 -1.578125 18.94335938 C-2.04528437 20.96382366 -2.52169374 22.98214547 -3 25 C-3.33 25 -3.66 25 -4 25 C-4.02689216 23.52093108 -4.04634621 22.04172517 -4.0625 20.5625 C-4.07410156 19.73878906 -4.08570313 18.91507813 -4.09765625 18.06640625 C-4 16 -4 16 -3 15 C-2.92794489 13.31391034 -2.91613932 11.62499341 -2.9375 9.9375 C-2.94652344 9.01839844 -2.95554687 8.09929687 -2.96484375 7.15234375 C-2.97644531 6.44207031 -2.98804688 5.73179687 -3 5 C-2.34 5 -1.68 5 -1 5 C-0.67 3.35 -0.34 1.7 0 0 Z " fill="#F3D069" transform="translate(285,139)"/>
<path d="M0 0 C3.625 0.375 3.625 0.375 7 1 C3.87378374 4.39417765 1.43458973 6.6062718 -3 8 C-2.25 2.25 -2.25 2.25 0 0 Z " fill="#EE6F3E" transform="translate(317,322)"/>
<path d="M0 0 C1.32 0.99 2.64 1.98 4 3 C4.33 2.34 4.66 1.68 5 1 C6.4216319 4.3171411 7.39009109 7.44219804 8 11 C0.51708428 4.84965831 0.51708428 4.84965831 -2 1 C-1.34 0.67 -0.68 0.34 0 0 Z " fill="#ED7143" transform="translate(168,312)"/>
<path d="M0 0 C0 0.66 0 1.32 0 2 C-1.77065111 2.64633275 -3.54152753 3.2920483 -5.3125 3.9375 C-6.29863281 4.29714844 -7.28476563 4.65679687 -8.30078125 5.02734375 C-10.1920563 5.70885965 -12.09284329 6.3642811 -14 7 C-14.33 7.99 -14.66 8.98 -15 10 C-16.98 10.33 -18.96 10.66 -21 11 C-17.97388506 7.63846027 -15.00002446 5.77076768 -10.9375 3.8125 C-9.89464844 3.30332031 -8.85179687 2.79414063 -7.77734375 2.26953125 C-2.81230769 0 -2.81230769 0 0 0 Z " fill="#E86F43" transform="translate(205,127)"/>
<path d="M0 0 C-1.36983503 3.16115776 -1.9890638 3.9927092 -5 6 C-8 6 -8 6 -11 4 C-9.73760288 3.13341385 -8.46472499 2.28207941 -7.1875 1.4375 C-6.47980469 0.96183594 -5.77210938 0.48617188 -5.04296875 -0.00390625 C-3 -1 -3 -1 0 0 Z " fill="#F36D3B" transform="translate(310,320)"/>
<path d="M0 0 C2 2 2 2 2.125 4.625 C2.08375 5.40875 2.0425 6.1925 2 7 C2.99 7.33 3.98 7.66 5 8 C7.1875 9.4375 7.1875 9.4375 9 11 C9 11.66 9 12.32 9 13 C5.00582829 11.6305697 1.96235532 10.04699404 -1 7 C-1.375 3.8125 -1.375 3.8125 -1 1 C-0.67 0.67 -0.34 0.34 0 0 Z " fill="#FCC24F" transform="translate(199,314)"/>
<path d="M0 0 C-0.33 3.96 -0.66 7.92 -1 12 C-1.99 12 -2.98 12 -4 12 C-5.34588235 4.65882353 -5.34588235 4.65882353 -3.6875 1.5 C-2 0 -2 0 0 0 Z " fill="#F6D053" transform="translate(205,309)"/>
<path d="M0 0 C0.33 0 0.66 0 1 0 C1.33 4.29 1.66 8.58 2 13 C1.34 12.67 0.68 12.34 0 12 C-0.99 12.99 -1.98 13.98 -3 15 C-2.35812082 9.86496656 -1.31727753 5.0056546 0 0 Z " fill="#F6D667" transform="translate(254,199)"/>
<path d="M0 0 C0.66 0.99 1.32 1.98 2 3 C1.67 3.66 1.34 4.32 1 5 C1.66 5 2.32 5 3 5 C3.33 6.32 3.66 7.64 4 9 C0.00499382 7.6302836 -2.80009492 5.74277578 -6 3 C-4.68 3 -3.36 3 -2 3 C-2 2.34 -2 1.68 -2 1 C-1.34 0.67 -0.68 0.34 0 0 Z " fill="#ED6D3B" transform="translate(299,136)"/>
<path d="M0 0 C0.66 0.33 1.32 0.66 2 1 C-0.31 5.62 -2.62 10.24 -5 15 C-5.33 15 -5.66 15 -6 15 C-6 13.02 -6 11.04 -6 9 C-5.34 9 -4.68 9 -4 9 C-4 7.68 -4 6.36 -4 5 C-3.34 5 -2.68 5 -2 5 C-1.34 3.35 -0.68 1.7 0 0 Z " fill="#E26F49" transform="translate(175,170)"/>
<path d="M0 0 C0.66 0.66 1.32 1.32 2 2 C1.07265428 3.48555383 0.13275187 4.96327506 -0.8125 6.4375 C-1.59560547 7.67306641 -1.59560547 7.67306641 -2.39453125 8.93359375 C-4 11 -4 11 -7 12 C-5.44298069 7.32894208 -2.91552627 3.91294315 0 0 Z " fill="#EC6F42" transform="translate(158,162)"/>
<path d="M0 0 C2.475 0.99 2.475 0.99 5 2 C3.68 3.65 2.36 5.3 1 7 C1 6.01 1 5.02 1 4 C-1.97 6.475 -1.97 6.475 -5 9 C-3.7508258 5.54074837 -2.32472205 2.85306797 0 0 Z " fill="#F5CF6F" transform="translate(204,305)"/>
<path d="M0 0 C5.69139902 1.09698167 10.74567937 2.54053077 16 5 C16 5.33 16 5.66 16 6 C13.03 5.67 10.06 5.34 7 5 C7 4.34 7 3.68 7 3 C4.69 2.34 2.38 1.68 0 1 C0 0.67 0 0.34 0 0 Z " fill="#E96E41" transform="translate(291,125)"/>
<path d="M0 0 C0.66 0.33 1.32 0.66 2 1 C1.01 3.31 0.02 5.62 -1 8 C-3.97 7.505 -3.97 7.505 -7 7 C-4.66666667 4.66666667 -2.33333333 2.33333333 0 0 Z " fill="#F06C3F" transform="translate(316,312)"/>
<path d="M0 0 C2.9375 0.9375 2.9375 0.9375 6 3 C6.84403097 5.99392117 6.98699834 8.89910366 7 12 C6.34 11.67 5.68 11.34 5 11 C5 9.02 5 7.04 5 5 C3.02 5.66 1.04 6.32 -1 7 C-0.67 6.34 -0.34 5.68 0 5 C0.66 5 1.32 5 2 5 C2 4.01 2 3.02 2 2 C1.34 2 0.68 2 0 2 C0 1.34 0 0.68 0 0 Z " fill="#EA6E41" transform="translate(320,137)"/>
<path d="M0 0 C0 0.99 0 1.98 0 3 C-1 4 -2 5 -3 6 C-3.12375 6.680625 -3.2475 7.36125 -3.375 8.0625 C-3.684375 9.0215625 -3.684375 9.0215625 -4 10 C-6.5625 11.25 -6.5625 11.25 -9 12 C-7.55575365 8.76138697 -5.74227753 6.38030837 -3.375 3.75 C-2.74335938 3.04359375 -2.11171875 2.3371875 -1.4609375 1.609375 C-0.97882813 1.07828125 -0.49671875 0.5471875 0 0 Z " fill="#E66F45" transform="translate(168,150)"/>
<path d="M0 0 C1.98 0.66 3.96 1.32 6 2 C4.8125 3.5 4.8125 3.5 3 5 C0.3125 5.1875 0.3125 5.1875 -2 5 C-2 4.01 -2 3.02 -2 2 C-1.34 2 -0.68 2 0 2 C0 1.34 0 0.68 0 0 Z " fill="#EE6F3D" transform="translate(308,328)"/>
<path d="M0 0 C0.33 0.66 0.66 1.32 1 2 C0.00390625 4.1640625 0.00390625 4.1640625 -1.4375 6.625 C-1.91058594 7.44226563 -2.38367188 8.25953125 -2.87109375 9.1015625 C-3.24363281 9.72804688 -3.61617187 10.35453125 -4 11 C-5.2077558 7.37673261 -4.54311128 6.35853631 -3 3 C-3.66 2.67 -4.32 2.34 -5 2 C-3.35 1.34 -1.7 0.68 0 0 Z " fill="#F2D462" transform="translate(240,303)"/>
<path d="M0 0 C-1 1.5 -1 1.5 -3 3 C-5.71846235 3.27345479 -8.25677199 3.13491285 -11 3 C-8.21756596 -1.17365106 -4.53441502 -0.22300402 0 0 Z " fill="#EE6F3E" transform="translate(254,337)"/>
<path d="M0 0 C0.33 0 0.66 0 1 0 C1 1.98 1 3.96 1 6 C-0.65 6.33 -2.3 6.66 -4 7 C-2.92598892 4.08482708 -2.22189824 2.22189824 0 0 Z " fill="#F9C552" transform="translate(319,269)"/>
<path d="M0 0 C2.475 0.99 2.475 0.99 5 2 C4.67 4.64 4.34 7.28 4 10 C1.04816899 7.04816899 0.91336012 4.04488053 0 0 Z " fill="#ED6F44" transform="translate(143,274)"/>
<path d="M0 0 C1.32 0 2.64 0 4 0 C3.34 2.97 2.68 5.94 2 9 C1.67 9 1.34 9 1 9 C0.67 6.03 0.34 3.06 0 0 Z " fill="#F6D160" transform="translate(254,256)"/>
<path d="M0 0 C1.42944945 2.35438733 2.08661261 3.48032433 1.625 6.25 C1.41875 6.8275 1.2125 7.405 1 8 C-0.37562854 6.71034824 -1.70766393 5.37310707 -3 4 C-3 3.34 -3 2.68 -3 2 C-2.01 2 -1.02 2 0 2 C0 1.34 0 0.68 0 0 Z " fill="#ED6B3E" transform="translate(164,305)"/>
<path d="M0 0 C0 3 0 3 -1 5 C-0.01 5.33 0.98 5.66 2 6 C0.02 6.99 0.02 6.99 -2 8 C-2 7.01 -2 6.02 -2 5 C-2.66 4.67 -3.32 4.34 -4 4 C-2.68 2.68 -1.36 1.36 0 0 Z " fill="#EFCD6B" transform="translate(316,271)"/>
<path d="M0 0 C0.33 0 0.66 0 1 0 C1.33 2.97 1.66 5.94 2 9 C1.01 9 0.02 9 -1 9 C-1.66 8.34 -2.32 7.68 -3 7 C-2.01 4.69 -1.02 2.38 0 0 Z " fill="#EF6F40" transform="translate(163,260)"/>
<path d="M0 0 C0.33 0 0.66 0 1 0 C1.33 1.98 1.66 3.96 2 6 C1.34 6 0.68 6 0 6 C0 6.66 0 7.32 0 8 C-0.99 8 -1.98 8 -3 8 C-1.125 2.25 -1.125 2.25 0 0 Z " fill="#ED6F46" transform="translate(150,174)"/>
<path d="M0 0 C-0.33 0.99 -0.66 1.98 -1 3 C-1.66 3 -2.32 3 -3 3 C-3 3.66 -3 4.32 -3 5 C-2.34 5.33 -1.68 5.66 -1 6 C-2.32 6 -3.64 6 -5 6 C-4.625 3.5625 -4.625 3.5625 -4 1 C-2 0 -2 0 0 0 Z " fill="#F6D571" transform="translate(219,294)"/>
<path d="M0 0 C2.32472205 2.85306797 3.7508258 5.54074837 5 9 C2.5 7.875 2.5 7.875 0 6 C-0.3125 2.8125 -0.3125 2.8125 0 0 Z " fill="#E47245" transform="translate(172,288)"/>
<path d="M0 0 C0.6875 1.8125 0.6875 1.8125 1 4 C-0.375 5.75 -0.375 5.75 -2 7 C-2.33 7 -2.66 7 -3 7 C-3.1875 4.625 -3.1875 4.625 -3 2 C-2.01 1.34 -1.02 0.68 0 0 Z " fill="#FB6A31" transform="translate(328,167)"/>
<path d="M0 0 C-0.33 1.32 -0.66 2.64 -1 4 C-1.66 4 -2.32 4 -3 4 C-3.33 4.66 -3.66 5.32 -4 6 C-4.99 5.67 -5.98 5.34 -7 5 C-2.25 0 -2.25 0 0 0 Z " fill="#E76E44" transform="translate(176,144)"/>
<path d="M0 0 C1.98 0 3.96 0 6 0 C3.47211993 2.79872437 1.79588866 4.45773019 -2 5 C-1.34 3.35 -0.68 1.7 0 0 Z " fill="#EC683C" transform="translate(202,139)"/>
<path d="M0 0 C1.32 0.33 2.64 0.66 4 1 C3.071875 2.1446875 3.071875 2.1446875 2.125 3.3125 C-0.05597052 5.99625809 -0.05597052 5.99625809 -2 9 C-1.51421457 5.87709365 -1.0013988 3.00419641 0 0 Z " fill="#E57444" transform="translate(342,243)"/>
<path d="M0 0 C1.31223496 3.93670488 0.24296256 6.12488144 -1 10 C-1.33 10 -1.66 10 -2 10 C-2.33 7.36 -2.66 4.72 -3 2 C-2.01 2 -1.02 2 0 2 C0 1.34 0 0.68 0 0 Z " fill="#E97142" transform="translate(167,188)"/>
<path d="M0 0 C0.66 0.33 1.32 0.66 2 1 C0.68 2.65 -0.64 4.3 -2 6 C-3.32 5.67 -4.64 5.34 -6 5 C-4.02 3.35 -2.04 1.7 0 0 Z " fill="#E86D42" transform="translate(182,138)"/>
</svg>
